<?xml version="1.0" encoding="UTF-8"?>
<svg id="Layer_1" xmlns="http://www.w3.org/2000/svg" version="1.1" viewBox="0 0 336.3 89.4" fill="#FFFFFF">
  <path d="M328.9,4.8c.1,0,.9.8,1,.8.7,1-1.6,2.2-2.3,2.6-2.6,1.5-5.6,2.7-8.4,3.8-5.6,2.3-11.4,4.5-17.1,6.6-29.4,10.8-59,21-88.4,31.8-2.1.9-4.6,2.8-1.9,4.9s10.5,3.6,13.8,4.4c26.3,6.1,53.2,8.1,80,11,5.1.5,11.4,1,16.3,2.2s2.3.8.2,1.1-6,.3-8.9.5c-6.9-.3-14,.4-20.9,0s-7.7-.9-11.4-1.3c-14.9-1.7-29.9-3.7-44.6-6.4s-14.9-2.6-21.7-4.9-8.3-3.6-10.1-7.4c-10.7,7.1-21.4,14.2-32.4,20.8s-5.2,3.1-7.8,4.6-6.6,3.8-10.2,3.9-1.8-1-.3-2.1c4.6-3.2,9.8-6.1,14.6-9.1,23.2-14.8,46.5-29.6,69.3-44.9,7.6-5.1,15.9-10.4,22.9-16.2s1.2-1.2,1.6-1.5,1.5-.5,1.6-.8-1-.3-1.2-.2c-1.5,0-3.4.4-4.8.7-6.1,1.1-12.2,2.7-18.3,3.9s-11.9,2.3-17.8,3.2c-9,1.4-18.1,2.7-27.2,3-1.9-1.4-3.4-4.1-1-5.8h5.4c23.2-1.6,46.2-5.6,69-10,2.2-.1,4.8.4,3.8,3.2s-10,10-13.5,12.5c-10.5,7.4-21.8,13.6-32.7,20.3-2.6,2.4,2.9,1.1,3.9.8,26.2-9.7,52.3-19.7,78.6-29,5.2-1.9,10.6-3.8,15.9-5.5s2.8-1,4.1-1.2.6-.2.8,0Z"/>
  <path d="M82,34.8c-.6-.6-3.8.4-4.7.7-16.6,8.4-33.4,16.6-49.5,26s-7.7,4.5-11.3,7-6.8,4.7-7.1,6.2,0,.4,0,.6-.4.4-.4.8c0,1.4,2.7,2.3,3.8,2.6,6.8,1.9,11.8.9,18.4-.2,18.9-2.9,37.9-5.4,56.9-8.1,1.8-.4-.5-1.8-1.1-2.4-3.5-4.1,3.6-6.7,5.9-8.8s2-2.7,4-2.8,3,.2,3.8.6.4.4.6.5c.4.2,1.5.8,1.9.8s1.5-.9,1.9-1.2c4.4-2.3,12.2-5.4,14.6,1h.1c3.9-1.3,7.6-3,11.6-4.1s2.2-.7,2.4-.5,0,.4.2.6c1,1.2,6.2.6,7.7.5,5.7-5.1,12.6-8.5,19.2-12.1s3.5-2.3,5.5-2.9c3.1-1,2.4,1.2,1.3,3-3.6,1.7-11.7,6.1-12.2,10.4s.2,2.4.7,3.1c1.9,2.6,9.4,2.7,12.3,2.6s1.9-.3,2.8-.3c1.5,0,5.5-.2,5,2.2s-.9,1.2-1.7,1.5c-7.3,2.8-15.8,2.3-21.8-3.1s-.9-1.5-2.3-1.5-1.1.3-1.5.6-.3.4-.4.5c-.4.2-1.5.1-2.1.4s-.8.6-1,.6c-.6,0-2.7-.4-3.6-.5s-2.1,0-2.3.3.3.7.2,1.1-2.5-.1-3-.1c-1.4,0-3.1.3-4.2,1.2s-.8,1-1,1.1c-.6.4-3.3.5-4.1.4s-2.6-.6-3.2-1.3-.1-.3-.2-.4c-.4-.4-2.3-.5-2.8-.5s-.5.4-.9.8-1.4.5-2.1.5-1.6-.5-2-.4-.3.5-.4.8c-.2.4-2.3.7-2.8.8-3.5.4-7,0-10.4.3s-6.9,1.2-8,4.2-.3,1,0,1.1c7-1,14-2.1,21-2.7s6-.7,8.6-.5,1.5.2,1.5.4c-1.5,1.3-3.7,1.7-5.6,2.2-7,1.8-14.3,3.1-21.4,4.5-14.9,2.9-30,5.6-45,8.2-8.3,1.5-16.6,3.1-25,4-6.5.3-19.5.1-24-5.2s-2.4-6.3-.3-9c3-3.9,11.4-8.8,15.8-11.3,13.8-8,28.8-15.1,43.3-21.8s9.3-4.4,14-6.4,10.4-4.2,12.6-.4-3.4,9.2-6.4,11.7-7.9,5.7-12,8.3c-.8,0-1.5-.2-2.3-.3-2.6-.6-3.2-1.8-1-3.6,4-3.2,9.7-6.1,13-10.1s1-1.3.6-1.7Z"/>
  <path d="M274.8,39.6c2.3,0,6.1.8,6,3.7s-5.5,8.1-7.9,10.5c-1,.7-2.1-1.1-2.5-1.8s-.8-1.6-1.1-2.4c-1.9-.9-4.5.4-6,1.7s-1.6,2.1-2.8,2.5c-2.8.8-5.3.2-5.1-3.2,2.8-2.1,5.6-4.2,8.5-6.1s7.7-4.8,11-4.9Z"/>
  <path d="M305.2,34.8c.7,0,.9.4.8,1s-2.7,3.2-3.4,3.9c-5.2,4.9-11,9.2-16.4,13.8-2.4.5-3.9-.1-3.4-2.8s.2-.9.2-1.9c0-2.2,3-8.2,4.1-10.3s.8-1.8,1.5-2c2.1-.6,1.4,1.5,1.5,2.8s.5,2.6,1.7,2.5c3.3-1.9,6.7-3.8,10.1-5.5s2.4-1.3,3.4-1.4Z"/>
</svg>
