<svg width="886" height="499" viewBox="0 0 886 499" fill="none" xmlns="http://www.w3.org/2000/svg">
<g opacity="0.06">
<line x1="64.7049" y1="-10.8438" x2="64.7049" y2="498.342" stroke="white" stroke-width="0.426395"/>
<line x1="136.719" y1="-10.8438" x2="136.719" y2="498.342" stroke="white" stroke-width="0.426395"/>
<line x1="208.731" y1="-10.8438" x2="208.731" y2="498.342" stroke="white" stroke-width="0.426395"/>
<line x1="280.746" y1="-10.8438" x2="280.746" y2="498.342" stroke="white" stroke-width="0.426395"/>
<line x1="352.758" y1="-10.8438" x2="352.758" y2="498.342" stroke="white" stroke-width="0.426395"/>
<line x1="424.772" y1="-10.8438" x2="424.772" y2="498.342" stroke="white" stroke-width="0.426395"/>
<line x1="496.785" y1="-10.8438" x2="496.785" y2="498.342" stroke="white" stroke-width="0.426395"/>
<line x1="568.799" y1="-10.8438" x2="568.799" y2="498.342" stroke="white" stroke-width="0.426395"/>
<line x1="640.812" y1="-10.8438" x2="640.812" y2="498.342" stroke="white" stroke-width="0.426395"/>
<line x1="712.826" y1="-10.8438" x2="712.826" y2="498.342" stroke="white" stroke-width="0.426395"/>
<line x1="784.839" y1="-10.8438" x2="784.839" y2="498.342" stroke="white" stroke-width="0.426395"/>
<line x1="856.852" y1="-10.8438" x2="856.852" y2="498.342" stroke="white" stroke-width="0.426395"/>
<line x1="-223.562" y1="61.6852" x2="1072.68" y2="61.6852" stroke="white" stroke-width="0.426395"/>
<line x1="-224" y1="134.787" x2="1072.24" y2="134.787" stroke="white" stroke-width="0.426395"/>
<line x1="-223.562" y1="207.162" x2="1072.68" y2="207.162" stroke="white" stroke-width="0.426395"/>
<line x1="-223.562" y1="279.912" x2="1072.68" y2="279.912" stroke="white" stroke-width="0.426395"/>
<line x1="-223.562" y1="352.646" x2="1072.68" y2="352.646" stroke="white" stroke-width="0.426395"/>
<line x1="-223.562" y1="425.381" x2="1072.68" y2="425.381" stroke="white" stroke-width="0.426395"/>
<line x1="-223.562" y1="498.131" x2="1072.68" y2="498.131" stroke="white" stroke-width="0.426395"/>
<circle cx="64.6807" cy="61.6782" r="2.13137" fill="white"/>
<circle cx="136.741" cy="61.6782" r="2.13137" fill="white"/>
<circle cx="208.802" cy="61.6782" r="2.13137" fill="white"/>
<circle cx="280.437" cy="61.6782" r="2.13137" fill="white"/>
<circle cx="352.498" cy="61.6782" r="2.13137" fill="white"/>
<circle cx="424.558" cy="61.6782" r="2.13137" fill="white"/>
<circle cx="496.619" cy="61.6782" r="2.13137" fill="white"/>
<circle cx="568.68" cy="61.6782" r="2.13137" fill="white"/>
<circle cx="640.741" cy="61.6782" r="2.13137" fill="white"/>
<circle cx="712.801" cy="61.6782" r="2.13137" fill="white"/>
<circle cx="784.862" cy="61.6782" r="2.13137" fill="white"/>
<circle cx="856.923" cy="61.6782" r="2.13137" fill="white"/>
<circle cx="64.6807" cy="134.592" r="2.13137" fill="white"/>
<circle cx="136.741" cy="134.592" r="2.13137" fill="white"/>
<circle cx="208.802" cy="134.592" r="2.13137" fill="white"/>
<circle cx="280.437" cy="134.592" r="2.13137" fill="white"/>
<circle cx="352.498" cy="134.592" r="2.13137" fill="white"/>
<circle cx="424.558" cy="134.592" r="2.13137" fill="white"/>
<circle cx="496.619" cy="134.592" r="2.13137" fill="white"/>
<circle cx="568.68" cy="134.592" r="2.13137" fill="white"/>
<circle cx="640.741" cy="134.592" r="2.13137" fill="white"/>
<circle cx="712.801" cy="134.592" r="2.13137" fill="white"/>
<circle cx="784.862" cy="134.592" r="2.13137" fill="white"/>
<circle cx="856.923" cy="134.592" r="2.13137" fill="white"/>
<circle cx="64.6807" cy="207.077" r="2.13137" fill="white"/>
<circle cx="136.741" cy="207.077" r="2.13137" fill="white"/>
<circle cx="208.802" cy="207.077" r="2.13137" fill="white"/>
<circle cx="280.437" cy="207.077" r="2.13137" fill="white"/>
<circle cx="352.498" cy="207.077" r="2.13137" fill="white"/>
<circle cx="424.558" cy="207.077" r="2.13137" fill="white"/>
<circle cx="496.619" cy="207.077" r="2.13137" fill="white"/>
<circle cx="568.68" cy="207.077" r="2.13137" fill="white"/>
<circle cx="640.741" cy="207.077" r="2.13137" fill="white"/>
<circle cx="712.801" cy="207.077" r="2.13137" fill="white"/>
<circle cx="784.862" cy="207.077" r="2.13137" fill="white"/>
<circle cx="856.923" cy="207.077" r="2.13137" fill="white"/>
<circle cx="64.2539" cy="279.999" r="2.13137" fill="white"/>
<circle cx="136.315" cy="279.999" r="2.13137" fill="white"/>
<circle cx="208.376" cy="279.999" r="2.13137" fill="white"/>
<circle cx="280.009" cy="279.999" r="2.13137" fill="white"/>
<circle cx="352.071" cy="279.999" r="2.13137" fill="white"/>
<circle cx="424.131" cy="279.999" r="2.13137" fill="white"/>
<circle cx="496.193" cy="279.999" r="2.13137" fill="white"/>
<circle cx="568.253" cy="279.999" r="2.13137" fill="white"/>
<circle cx="640.314" cy="279.999" r="2.13137" fill="white"/>
<circle cx="712.375" cy="279.999" r="2.13137" fill="white"/>
<circle cx="784.435" cy="279.999" r="2.13137" fill="white"/>
<circle cx="856.497" cy="279.999" r="2.13137" fill="white"/>
<circle cx="64.6807" cy="352.483" r="2.13137" fill="white"/>
<circle cx="136.741" cy="352.483" r="2.13137" fill="white"/>
<circle cx="208.802" cy="352.483" r="2.13137" fill="white"/>
<circle cx="280.437" cy="352.483" r="2.13137" fill="white"/>
<circle cx="352.498" cy="352.483" r="2.13137" fill="white"/>
<circle cx="424.558" cy="352.483" r="2.13137" fill="white"/>
<circle cx="496.619" cy="352.483" r="2.13137" fill="white"/>
<circle cx="568.68" cy="352.483" r="2.13137" fill="white"/>
<circle cx="640.741" cy="352.483" r="2.13137" fill="white"/>
<circle cx="712.801" cy="352.483" r="2.13137" fill="white"/>
<circle cx="784.862" cy="352.483" r="2.13137" fill="white"/>
<circle cx="856.923" cy="352.483" r="2.13137" fill="white"/>
<circle cx="64.6807" cy="425.397" r="2.13137" fill="white"/>
<circle cx="136.741" cy="425.397" r="2.13137" fill="white"/>
<circle cx="208.802" cy="425.397" r="2.13137" fill="white"/>
<circle cx="280.437" cy="425.397" r="2.13137" fill="white"/>
<circle cx="352.498" cy="425.397" r="2.13137" fill="white"/>
<circle cx="424.558" cy="425.397" r="2.13137" fill="white"/>
<circle cx="496.619" cy="425.397" r="2.13137" fill="white"/>
<circle cx="568.68" cy="425.397" r="2.13137" fill="white"/>
<circle cx="640.741" cy="425.397" r="2.13137" fill="white"/>
<circle cx="712.801" cy="425.397" r="2.13137" fill="white"/>
<circle cx="784.862" cy="425.397" r="2.13137" fill="white"/>
<circle cx="856.923" cy="425.397" r="2.13137" fill="white"/>
</g>
</svg>
